<?xml version="1.0" standalone="no"?>
<!DOCTYPE svg PUBLIC "-//W3C//DTD SVG 20010904//EN"
 "http://www.w3.org/TR/2001/REC-SVG-20010904/DTD/svg10.dtd">
<svg version="1.0" xmlns="http://www.w3.org/2000/svg"
 width="1000.000000pt" height="1000.000000pt" viewBox="0 0 1000.000000 1000.000000"
 preserveAspectRatio="xMidYMid meet">
<metadata>
Created by potrace 1.14, written by Peter Selinger 2001-2017
</metadata>
<g transform="translate(0.000000,1000.000000) scale(0.100000,-0.100000)"
fill="#000000" stroke="none">
<path d="M9487 8454 c-1 -1 -54 -5 -117 -8 -143 -8 -244 -14 -335 -20 -38 -3
-113 -8 -165 -11 -52 -3 -119 -8 -149 -10 -29 -3 -87 -8 -130 -11 -42 -3 -98
-7 -126 -9 -27 -2 -84 -7 -125 -10 -41 -3 -93 -8 -115 -10 -57 -6 -141 -14
-210 -20 -33 -3 -82 -8 -110 -10 -27 -3 -70 -8 -95 -10 -25 -2 -63 -6 -85 -9
-22 -2 -69 -7 -105 -11 -36 -3 -81 -8 -100 -10 -19 -3 -57 -7 -85 -10 -85 -9
-126 -14 -255 -30 -125 -16 -159 -21 -225 -30 -19 -3 -51 -7 -70 -10 -19 -3
-50 -7 -67 -9 -69 -9 -134 -19 -153 -22 -11 -3 -38 -7 -60 -10 -22 -2 -53 -7
-70 -10 -16 -3 -39 -7 -50 -9 -11 -1 -47 -7 -80 -13 -33 -6 -76 -14 -95 -17
-53 -8 -103 -17 -125 -22 -11 -2 -31 -6 -45 -9 -14 -2 -65 -13 -115 -24 -49
-10 -103 -21 -120 -24 -16 -3 -45 -10 -63 -15 -18 -5 -35 -10 -37 -10 -43 -4
-57 -18 -98 -99 -65 -125 -202 -428 -292 -642 -42 -102 -81 -194 -86 -205 -5
-11 -36 -92 -70 -180 -164 -429 -315 -892 -409 -1260 -38 -148 -34 -131 -60
-245 -12 -52 -28 -122 -35 -155 -24 -102 -65 -317 -80 -420 -3 -22 -9 -65 -15
-95 -11 -68 -18 -125 -27 -210 -3 -35 -9 -75 -12 -89 -7 -24 -8 -24 -31 15
-13 21 -27 41 -30 44 -25 20 -244 412 -350 625 -260 524 -465 1068 -627 1665
-30 113 -59 209 -64 214 -7 8 -211 64 -298 82 -45 9 -678 182 -751 204 -34 11
-81 24 -192 54 -58 16 -654 191 -703 206 -16 6 -66 21 -110 34 -44 13 -114 34
-155 47 -41 13 -78 24 -82 25 -5 1 -9 2 -10 4 -2 1 -10 3 -18 5 -8 2 -113 33
-233 70 -120 37 -220 65 -223 63 -2 -3 18 -95 47 -204 28 -110 52 -206 54
-214 26 -105 167 -535 275 -835 60 -167 259 -656 327 -805 14 -30 42 -93 63
-140 172 -388 439 -920 658 -1310 238 -424 380 -660 672 -1109 268 -414 748
-1048 1010 -1336 20 -22 61 -67 91 -100 30 -33 126 -134 215 -224 l161 -163
244 124 c455 231 886 424 1267 564 77 29 134 55 136 64 3 8 7 38 11 65 18 149
107 544 176 785 93 325 265 821 355 1025 7 17 29 71 49 120 20 50 50 118 66
153 16 34 29 64 29 66 0 3 18 44 41 93 22 48 59 129 82 178 43 95 257 520 322
640 171 319 420 736 621 1040 43 66 81 124 83 130 2 5 8 14 13 20 5 5 54 75
110 155 234 337 539 726 803 1025 251 284 628 656 828 815 31 25 56 48 57 52
0 5 -117 7 -123 2z"/>
</g>
</svg>
